<svg width="50" height="50" viewBox=" 0 0 50 50" fill="none"
     xmlns="http://www.w3.org/2000/svg">
<!--    <g id="code">-->
<!--        <path fill-rule="evenodd" clip-rule="evenodd"-->
<!--              d="M18.3125 42.0645L27.2623 6.6875L31.4375 7.87241L22.4878 43.3125L18.3125 42.0645Z" fill="#7572D5"/>-->
<!--        <path fill-rule="evenodd" clip-rule="evenodd"-->
<!--              d="M13.5025 12.6875L16.5625 15.9278L7.99501 25.0001L16.5625 34.0721L13.5025 37.3125L1.875 25.0001L13.5025 12.6875Z"-->
<!--              fill="#7572D5"/>-->
<!--        <path fill-rule="evenodd" clip-rule="evenodd"-->
<!--              d="M36.4976 12.6875L33.4375 15.9278L42.0051 25.0001L33.4375 34.0721L36.4976 37.3125L48.125 25.0001L36.4976 12.6875Z"-->
<!--              fill="#7572D5"/>-->
<!--    </g>-->

<!--    <g id="react_logo">-->
<!--        <path d="M47.8125 25C47.8125 22.0833 44.6875 19.375 39.4792 17.5L38.5417 17.1875V16.7708C39.6875 11.0416 38.8542 6.7708 36.25 5.2083C33.6458 3.6458 29.7917 5.10414 25.625 8.74997L25 9.37497L24.7917 9.16664H24.5833C20.3125 5.2083 16.1458 3.85414 13.5417 5.31247C10.9375 6.7708 10.2083 10.8333 11.25 16.1458C11.3596 16.4838 11.4295 16.8333 11.4583 17.1875L10.3125 17.6041C5.20833 19.375 2.1875 22.0833 2.1875 25C2.1875 27.9166 5.52083 30.8333 10.7292 32.7083L11.4583 32.9166C11.3296 33.2854 11.2593 33.672 11.25 34.0625C10.2083 39.2708 11.1458 43.2291 13.5417 44.6875C15.9375 46.1458 20.3125 44.7916 24.4792 41.1458L25.1042 40.625L25.9375 41.4583C28.8542 43.9583 31.7708 45.3125 34.0625 45.3125C34.8708 45.3309 35.6671 45.1137 36.3542 44.6875C38.9583 43.2291 39.8958 38.9583 38.75 33.5416V33.3333C38.705 33.1619 38.6702 32.988 38.6458 32.8125H38.9583C44.4792 30.8333 47.8125 28.0208 47.8125 25ZM44.7917 25C44.7917 26.25 42.5 28.4375 38.0208 29.8958H37.8125C37.2664 28.2202 36.6051 26.5843 35.8333 25C36.5625 23.3333 37.1875 21.6666 37.7083 20.1041L38.5417 20.3125C42.7083 21.7708 44.7917 23.75 44.7917 25ZM27.9167 39.1666L27.0833 38.5416C28.2761 37.2201 29.3891 35.8287 30.4167 34.375L35.7292 33.5416C35.8333 33.75 35.8333 33.9583 35.9375 34.0625C36.3087 35.9492 36.379 37.8829 36.1458 39.7916C35.9995 40.7045 35.5608 41.5452 34.8958 42.1875C33.8542 42.8125 31.0417 41.9791 27.9167 39.1666ZM26.5625 34.5833L25.1042 36.4583L23.4375 34.5833H26.5625ZM12.2917 20C12.8152 21.7174 13.4771 23.3895 14.2708 25C13.4765 26.646 12.8146 28.3528 12.2917 30.1041L11.6667 29.8958C9.84256 29.3201 8.1454 28.4008 6.66667 27.1875C6.28377 26.9455 5.95605 26.6257 5.7048 26.2488C5.45356 25.872 5.2844 25.4465 5.20833 25C5.20833 23.75 7.29167 21.7708 11.25 20.4166L12.2917 20ZM23.4375 15.4166L25 13.6458L26.5625 15.4166H23.4375ZM34.8958 7.81247C36.0417 8.43747 36.6667 11.5625 35.7292 16.1458C35.734 16.2022 35.7272 16.2591 35.7093 16.3128C35.6914 16.3665 35.6627 16.416 35.625 16.4583L30.4167 15.625C29.3891 14.1712 28.2761 12.7799 27.0833 11.4583L27.7083 10.9375C31.0417 8.0208 33.75 7.18747 34.8958 7.81247ZM17.5 18.8541L16.6667 20.2083L15.9375 21.5625C15.625 20.8333 15.4167 20.1041 15.1042 19.2708L17.5 18.8541ZM15.1042 30.7291C15.4167 30 15.625 29.2708 15.9375 28.4375L16.6667 29.7916L17.5 31.1458L15.1042 30.7291ZM32.5 25C31.9699 26.142 31.3788 27.2548 30.7292 28.3333C30.1042 29.4791 29.375 30.5208 28.75 31.5625H21.25C20.5208 30.4166 19.7917 29.375 19.2708 28.3333C18.6161 27.2577 18.0248 26.1447 17.5 25C18.0054 23.8458 18.5974 22.7315 19.2708 21.6666C19.8693 20.5874 20.5301 19.544 21.25 18.5416C23.7457 18.3334 26.2543 18.3334 28.75 18.5416C29.4792 19.5833 30.1042 20.625 30.7292 21.6666C31.4026 22.7315 31.9946 23.8458 32.5 25ZM33.3333 20.2083L32.5 18.8541L34.8958 19.375C34.6639 20.1208 34.3856 20.8514 34.0625 21.5625L33.3333 20.2083ZM32.5 31.1458L33.3333 29.7916L34.0625 28.3333L35 30.7291L32.5 31.1458ZM22.8125 11.3541H22.9167L19.5833 15.5208L14.375 16.3541C14.2708 16.0416 14.2708 15.8333 14.1667 15.5208C13.3333 11.25 13.9583 8.3333 15 7.81247C15.2766 7.63082 15.61 7.55672 15.9375 7.60414C17.3958 7.60414 19.8958 8.6458 22.7083 11.1458L22.8125 11.3541ZM14.1667 34.5833C14.1857 34.2617 14.256 33.9452 14.375 33.6458L19.6875 34.375C20.689 35.8481 21.8034 37.2412 23.0208 38.5416L22.8125 38.75L22.6042 38.9583C21.184 40.2738 19.5211 41.2999 17.7083 41.9791C17.3107 42.1874 16.875 42.3133 16.4275 42.3491C15.98 42.3849 15.5299 42.3299 15.1042 42.1875C13.9583 41.5625 13.3333 38.75 14.1667 34.5833Z"-->
<!--              fill="#7572D5"/>-->
<!--        <path d="M25 20.4166C24.0894 20.3959 23.1932 20.647 22.4259 21.1379C21.6586 21.6287 21.0549 22.3371 20.692 23.1726C20.3291 24.008 20.2233 24.9327 20.3882 25.8285C20.5532 26.7243 20.9812 27.5507 21.6179 28.2022C22.2545 28.8536 23.0709 29.3006 23.9627 29.4861C24.8545 29.6715 25.7813 29.587 26.6249 29.2434C27.4685 28.8998 28.1905 28.3126 28.6989 27.5568C29.2073 26.801 29.4789 25.9108 29.4792 24.9999C29.4795 23.8022 29.0109 22.6519 28.1738 21.7953C27.3366 20.9387 26.1974 20.4438 25 20.4166Z"-->
<!--              fill="#7572D5"/>-->
<!--    </g>-->

<!--    <g id="html_logo">-->
<!--        <path d="M38.0508 10.8437L12.946 10.8377L13.3515 15.7547L32.6381 15.7577L32.1519 20.8502H19.5035L19.9608 25.6742H31.7358L31.0392 32.2806L25.4969 33.7886L19.8663 32.2701L19.508 28.3134H14.5359L15.0877 35.5411L25.4969 38.7341L35.7309 35.8652L38.0493 10.8452L38.0508 10.8437ZM5.49844 2.56873H45.4984L41.86 42.9999L25.4542 47.5687L9.13993 42.9968L5.49844 2.56873Z"-->
<!--              fill="#7572D5"/>-->
<!--    </g>-->

    <g id="mobileHome">
        <path d="M14.9999 14.9999C14.9999 15.1989 14.9209 15.3896 14.7803 15.5303C14.6396 15.6709 14.4489 15.7499 14.2499 15.7499H3.74994C3.55103 15.7499 3.36026 15.6709 3.21961 15.5303C3.07896 15.3896 2.99994 15.1989 2.99994 14.9999V8.24994H0.749939L8.49519 1.20894C8.63327 1.0833 8.81325 1.01367 8.99994 1.01367C9.18663 1.01367 9.36661 1.0833 9.50469 1.20894L17.2499 8.24994H14.9999V14.9999Z" fill="currentColor"/>
    </g>
    <defs>
        <clipPath id="clip0_45165_359">
<!--            <rect width="18" height="18" fill="white"/>-->
        </clipPath>
    </defs>

    <g id="mobileSkills">
            <path d="M17.5 4.28699V4.5H12V0H12.2603C12.5338 0 12.7962 0.0889101 12.9896 0.247113L17.198 3.69035C17.3913 3.8486 17.5 4.06321 17.5 4.28699ZM11.6562 5.625C11.0891 5.625 10.625 5.24531 10.625 4.78125V0H2.03125C1.4617 0 1 0.377754 1 0.84375V17.1562C1 17.6222 1.4617 18 2.03125 18H16.4688C17.0383 18 17.5 17.6222 17.5 17.1562V5.625H11.6562ZM6.29401 14.0803C6.27317 14.0984 6.24815 14.1131 6.22039 14.1234C6.19263 14.1337 6.16266 14.1394 6.13221 14.1402C6.10175 14.141 6.0714 14.1368 6.04289 14.1281C6.01437 14.1193 5.98826 14.106 5.96603 14.0889L3.17882 11.951C3.15567 11.9332 3.13722 11.9118 3.1246 11.888C3.11199 11.8641 3.10548 11.8384 3.10548 11.8125C3.10548 11.7865 3.11199 11.7608 3.1246 11.737C3.13722 11.7132 3.15567 11.6917 3.17882 11.674L5.96603 9.53606C5.98826 9.51901 6.01437 9.50571 6.04289 9.49691C6.0714 9.48812 6.10175 9.484 6.13221 9.48481C6.16266 9.48561 6.19263 9.49131 6.22039 9.50159C6.24815 9.51187 6.27317 9.52652 6.29401 9.54471L7.13529 10.2789C7.15655 10.2975 7.17304 10.3194 7.18377 10.3432C7.19451 10.3671 7.19927 10.3925 7.19778 10.4179C7.19629 10.4433 7.18858 10.4682 7.1751 10.4911C7.16161 10.514 7.14264 10.5345 7.11931 10.5513L5.36777 11.8125L7.11931 13.0737C7.14264 13.0905 7.16161 13.111 7.1751 13.1339C7.18858 13.1568 7.19629 13.1817 7.19778 13.2071C7.19927 13.2325 7.19451 13.2579 7.18377 13.2818C7.17304 13.3056 7.15655 13.3275 7.13529 13.3461L6.29401 14.0803ZM8.49809 15.8549L7.31847 15.5747C7.25937 15.5607 7.20951 15.528 7.17985 15.4839C7.15019 15.4398 7.14316 15.3878 7.1603 15.3394L9.8003 7.89947C9.81747 7.85112 9.85741 7.81032 9.91133 7.78606C9.96525 7.76179 10.0287 7.75603 10.0878 7.77006L11.2674 8.05025C11.2967 8.05721 11.324 8.06881 11.3478 8.08439C11.3716 8.09998 11.3914 8.11924 11.406 8.14109C11.4207 8.16294 11.43 8.18694 11.4334 8.21172C11.4367 8.2365 11.434 8.26158 11.4256 8.28552L8.78555 15.7255C8.77707 15.7494 8.76291 15.7718 8.74387 15.7913C8.72483 15.8107 8.70129 15.8269 8.6746 15.8389C8.6479 15.851 8.61857 15.8586 8.58829 15.8613C8.558 15.864 8.52735 15.8619 8.49809 15.8549ZM15.4071 11.951L12.6199 14.0889C12.5977 14.106 12.5716 14.1193 12.5431 14.1281C12.5145 14.1368 12.4842 14.141 12.4537 14.1402C12.4233 14.1394 12.3933 14.1337 12.3655 14.1234C12.3378 14.1131 12.3128 14.0984 12.2919 14.0803L11.4506 13.346C11.4293 13.3275 11.4129 13.3056 11.4021 13.2817C11.3914 13.2579 11.3866 13.2325 11.3881 13.2071C11.3896 13.1817 11.3973 13.1568 11.4108 13.1338C11.4243 13.1109 11.4433 13.0905 11.4666 13.0737L13.2182 11.8125L11.4666 10.5513C11.4433 10.5345 11.4243 10.514 11.4108 10.4911C11.3974 10.4682 11.3896 10.4433 11.3882 10.4179C11.3867 10.3925 11.3914 10.3671 11.4022 10.3432C11.4129 10.3194 11.4294 10.2975 11.4506 10.2789L12.292 9.54471C12.3128 9.52652 12.3378 9.51187 12.3656 9.50159C12.3934 9.49131 12.4233 9.48561 12.4538 9.48481C12.4842 9.484 12.5146 9.48812 12.5431 9.49691C12.5716 9.50571 12.5977 9.51901 12.62 9.53606L15.4072 11.674C15.4303 11.6917 15.4488 11.7132 15.4614 11.737C15.474 11.7608 15.4805 11.7865 15.4805 11.8125C15.4805 11.8385 15.474 11.8641 15.4613 11.888C15.4487 11.9118 15.4303 11.9332 15.4071 11.951Z" fill="currentColor"/>
        </g>
        <defs>
            <clipPath id="clip0_45165_362">
<!--                <rect width="16.5" height="18" fill="white" transform="translate(1)"/>-->
            </clipPath>
        </defs>

    <g id="portfolio">
            <path d="M6.75 9.75V12H11.25V9.75H16.5V15C16.5 15.1989 16.421 15.3897 16.2803 15.5303C16.1397 15.671 15.9489 15.75 15.75 15.75H2.25C2.05109 15.75 1.86032 15.671 1.71967 15.5303C1.57902 15.3897 1.5 15.1989 1.5 15V9.75H6.75ZM8.25 8.25H9.75V10.5H8.25V8.25ZM5.25 3.75V1.5C5.25 1.30109 5.32902 1.11032 5.46967 0.96967C5.61032 0.829018 5.80109 0.75 6 0.75H12C12.1989 0.75 12.3897 0.829018 12.5303 0.96967C12.671 1.11032 12.75 1.30109 12.75 1.5V3.75H15.75C15.9489 3.75 16.1397 3.82902 16.2803 3.96967C16.421 4.11032 16.5 4.30109 16.5 4.5V8.25H11.25V6.75H6.75V8.25H1.5V4.5C1.5 4.30109 1.57902 4.11032 1.71967 3.96967C1.86032 3.82902 2.05109 3.75 2.25 3.75H5.25ZM6.75 2.25V3.75H11.25V2.25H6.75Z" fill="currentColor"/>
        </g>
        <defs>
            <clipPath id="clip0_45165_368">
<!--                <rect width="18" height="18" fill="white"/>-->
            </clipPath>
        </defs>


    <g id="contacts">
            <path d="M4.84125 14.25L1.5 16.875V3C1.5 2.80109 1.57902 2.61032 1.71967 2.46967C1.86032 2.32902 2.05109 2.25 2.25 2.25H15.75C15.9489 2.25 16.1397 2.32902 16.2803 2.46967C16.421 2.61032 16.5 2.80109 16.5 3V13.5C16.5 13.6989 16.421 13.8897 16.2803 14.0303C16.1397 14.171 15.9489 14.25 15.75 14.25H4.84125Z" fill="currentColor"/>
        </g>
        <defs>
            <clipPath id="clip0_45165_374">
<!--                <rect width="18" height="18" fill="white"/>-->
            </clipPath>
        </defs>
        <g id="telegram">
            <path fill-rule="evenodd" clip-rule="evenodd" d="M41.2021 9.22909C41.7169 9.01241 42.2804 8.93768 42.8339 9.01267C43.3874 9.08767 43.9107 9.30965 44.3493 9.65552C44.788 10.0014 45.1259 10.4585 45.3279 10.9793C45.5299 11.5 45.5886 12.0654 45.4979 12.6166L40.7729 41.277C40.3146 44.0416 37.2812 45.627 34.7458 44.2499C32.625 43.0978 29.475 41.3228 26.6417 39.4708C25.225 38.5437 20.8854 35.5749 21.4188 33.4624C21.8771 31.6562 29.1687 24.8687 33.3354 20.8333C34.9708 19.2478 34.225 18.3333 32.2938 19.7916C27.4979 23.4124 19.7979 28.9187 17.2521 30.4687C15.0063 31.8353 13.8354 32.0687 12.4354 31.8353C9.88125 31.4103 7.5125 30.752 5.57917 29.9499C2.96667 28.8666 3.09375 25.2749 5.57708 24.2291L41.2021 9.22909Z" fill="#7562E0"/>
        </g>
        <defs>
            <clipPath id="clip0_45106_56">
<!--                <rect width="50" height="50" fill="white"/>-->
            </clipPath>
        </defs>
    <g id="github">
    <path d="M25 4.16675C22.2641 4.16675 19.555 4.70562 17.0274 5.75259C14.4998 6.79956 12.2032 8.33414 10.2686 10.2687C6.36159 14.1757 4.16666 19.4747 4.16666 25.0001C4.16666 34.2084 10.1458 42.0209 18.4167 44.7917C19.4583 44.9584 19.7917 44.3126 19.7917 43.7501V40.2292C14.0208 41.4792 12.7917 37.4376 12.7917 37.4376C11.8333 35.0209 10.4792 34.3751 10.4792 34.3751C8.58332 33.0834 10.625 33.1251 10.625 33.1251C12.7083 33.2709 13.8125 35.2709 13.8125 35.2709C15.625 38.4376 18.6875 37.5001 19.875 37.0001C20.0625 35.6459 20.6042 34.7292 21.1875 34.2084C16.5625 33.6876 11.7083 31.8959 11.7083 23.9584C11.7083 21.6459 12.5 19.7917 13.8542 18.3126C13.6458 17.7917 12.9167 15.6251 14.0625 12.8126C14.0625 12.8126 15.8125 12.2501 19.7917 14.9376C21.4375 14.4792 23.2292 14.2501 25 14.2501C26.7708 14.2501 28.5625 14.4792 30.2083 14.9376C34.1875 12.2501 35.9375 12.8126 35.9375 12.8126C37.0833 15.6251 36.3542 17.7917 36.1458 18.3126C37.5 19.7917 38.2917 21.6459 38.2917 23.9584C38.2917 31.9167 33.4167 33.6667 28.7708 34.1876C29.5208 34.8334 30.2083 36.1042 30.2083 38.0417V43.7501C30.2083 44.3126 30.5417 44.9792 31.6042 44.7917C39.875 42.0001 45.8333 34.2084 45.8333 25.0001C45.8333 22.2642 45.2945 19.5551 44.2475 17.0275C43.2005 14.4999 41.6659 12.2032 39.7314 10.2687C37.7968 8.33414 35.5002 6.79956 32.9726 5.75259C30.4449 4.70562 27.7359 4.16675 25 4.16675Z" fill="#7562E0"/>
    </g>

    <g id="gmail">
    <path d="M35.4167 7.29175H14.5833C8.33332 7.29175 4.16666 10.4167 4.16666 17.7084V32.2918C4.16666 39.5834 8.33332 42.7084 14.5833 42.7084H35.4167C41.6667 42.7084 45.8333 39.5834 45.8333 32.2918V17.7084C45.8333 10.4167 41.6667 7.29175 35.4167 7.29175ZM36.3958 19.9793L29.875 25.1876C28.5 26.2918 26.75 26.8334 25 26.8334C23.25 26.8334 21.4792 26.2918 20.125 25.1876L13.6042 19.9793C12.9375 19.4376 12.8333 18.4376 13.3542 17.7709C13.8958 17.1042 14.875 16.9792 15.5417 17.5209L22.0625 22.7293C23.6458 24.0001 26.3333 24.0001 27.9167 22.7293L34.4375 17.5209C35.1042 16.9792 36.1042 17.0834 36.625 17.7709C37.1667 18.4376 37.0625 19.4376 36.3958 19.9793Z" fill="#7562E0"/>
    </g>
    <g id="linkedIn">
        <path fill-rule="evenodd" clip-rule="evenodd" d="M37.5 6.25C39.1576 6.25 40.7473 6.90848 41.9194 8.08058C43.0915 9.25269 43.75 10.8424 43.75 12.5V37.5C43.75 39.1576 43.0915 40.7473 41.9194 41.9194C40.7473 43.0915 39.1576 43.75 37.5 43.75H12.5C10.8424 43.75 9.25269 43.0915 8.08058 41.9194C6.90848 40.7473 6.25 39.1576 6.25 37.5V12.5C6.25 10.8424 6.90848 9.25269 8.08058 8.08058C9.25269 6.90848 10.8424 6.25 12.5 6.25H37.5ZM16.6667 20.8333C16.1141 20.8333 15.5842 21.0528 15.1935 21.4435C14.8028 21.8342 14.5833 22.3641 14.5833 22.9167V33.3333C14.5833 33.8859 14.8028 34.4158 15.1935 34.8065C15.5842 35.1972 16.1141 35.4167 16.6667 35.4167C17.2192 35.4167 17.7491 35.1972 18.1398 34.8065C18.5305 34.4158 18.75 33.8859 18.75 33.3333V22.9167C18.75 22.3641 18.5305 21.8342 18.1398 21.4435C17.7491 21.0528 17.2192 20.8333 16.6667 20.8333ZM22.9167 18.75C22.3641 18.75 21.8342 18.9695 21.4435 19.3602C21.0528 19.7509 20.8333 20.2808 20.8333 20.8333V33.3333C20.8333 33.8859 21.0528 34.4158 21.4435 34.8065C21.8342 35.1972 22.3641 35.4167 22.9167 35.4167C23.4692 35.4167 23.9991 35.1972 24.3898 34.8065C24.7805 34.4158 25 33.8859 25 33.3333V25.7083C25.6354 24.9917 26.7083 24.15 27.9021 23.6396C28.5958 23.3438 29.6396 23.2229 30.3646 23.4521C30.6051 23.5131 30.8193 23.6505 30.975 23.8437C31.0833 23.9896 31.25 24.3146 31.25 25V33.3333C31.25 33.8859 31.4695 34.4158 31.8602 34.8065C32.2509 35.1972 32.7808 35.4167 33.3333 35.4167C33.8859 35.4167 34.4158 35.1972 34.8065 34.8065C35.1972 34.4158 35.4167 33.8859 35.4167 33.3333V25C35.4167 23.6042 35.0625 22.3625 34.325 21.3667C33.6464 20.4637 32.6966 19.8015 31.6146 19.4771C29.7354 18.8875 27.6542 19.2146 26.2646 19.8104C25.8194 20.001 25.3859 20.218 24.9667 20.4604C24.8793 19.9804 24.6263 19.5462 24.2517 19.2337C23.877 18.9211 23.4046 18.7499 22.9167 18.75ZM16.6667 14.5833C16.1141 14.5833 15.5842 14.8028 15.1935 15.1935C14.8028 15.5842 14.5833 16.1141 14.5833 16.6667C14.5833 17.2192 14.8028 17.7491 15.1935 18.1398C15.5842 18.5305 16.1141 18.75 16.6667 18.75C17.2192 18.75 17.7491 18.5305 18.1398 18.1398C18.5305 17.7491 18.75 17.2192 18.75 16.6667C18.75 16.1141 18.5305 15.5842 18.1398 15.1935C17.7491 14.8028 17.2192 14.5833 16.6667 14.5833Z" fill="#7562E0"/>
    </g>
    <defs>
        <clipPath id="clip0_45106_60">
<!--            <rect width="50" height="50" fill="white"/>-->
        </clipPath>
    </defs>

    <g id="axios">
        <path fill-rule="evenodd" clip-rule="evenodd" d="M37.5 6.25C39.1576 6.25 40.7473 6.90848 41.9194 8.08058C43.0915 9.25269 43.75 10.8424 43.75 12.5V37.5C43.75 39.1576 43.0915 40.7473 41.9194 41.9194C40.7473 43.0915 39.1576 43.75 37.5 43.75H12.5C10.8424 43.75 9.25269 43.0915 8.08058 41.9194C6.90848 40.7473 6.25 39.1576 6.25 37.5V12.5C6.25 10.8424 6.90848 9.25269 8.08058 8.08058C9.25269 6.90848 10.8424 6.25 12.5 6.25H37.5ZM16.6667 20.8333C16.1141 20.8333 15.5842 21.0528 15.1935 21.4435C14.8028 21.8342 14.5833 22.3641 14.5833 22.9167V33.3333C14.5833 33.8859 14.8028 34.4158 15.1935 34.8065C15.5842 35.1972 16.1141 35.4167 16.6667 35.4167C17.2192 35.4167 17.7491 35.1972 18.1398 34.8065C18.5305 34.4158 18.75 33.8859 18.75 33.3333V22.9167C18.75 22.3641 18.5305 21.8342 18.1398 21.4435C17.7491 21.0528 17.2192 20.8333 16.6667 20.8333ZM22.9167 18.75C22.3641 18.75 21.8342 18.9695 21.4435 19.3602C21.0528 19.7509 20.8333 20.2808 20.8333 20.8333V33.3333C20.8333 33.8859 21.0528 34.4158 21.4435 34.8065C21.8342 35.1972 22.3641 35.4167 22.9167 35.4167C23.4692 35.4167 23.9991 35.1972 24.3898 34.8065C24.7805 34.4158 25 33.8859 25 33.3333V25.7083C25.6354 24.9917 26.7083 24.15 27.9021 23.6396C28.5958 23.3438 29.6396 23.2229 30.3646 23.4521C30.6051 23.5131 30.8193 23.6505 30.975 23.8437C31.0833 23.9896 31.25 24.3146 31.25 25V33.3333C31.25 33.8859 31.4695 34.4158 31.8602 34.8065C32.2509 35.1972 32.7808 35.4167 33.3333 35.4167C33.8859 35.4167 34.4158 35.1972 34.8065 34.8065C35.1972 34.4158 35.4167 33.8859 35.4167 33.3333V25C35.4167 23.6042 35.0625 22.3625 34.325 21.3667C33.6464 20.4637 32.6966 19.8015 31.6146 19.4771C29.7354 18.8875 27.6542 19.2146 26.2646 19.8104C25.8194 20.001 25.3859 20.218 24.9667 20.4604C24.8793 19.9804 24.6263 19.5462 24.2517 19.2337C23.877 18.9211 23.4046 18.7499 22.9167 18.75ZM16.6667 14.5833C16.1141 14.5833 15.5842 14.8028 15.1935 15.1935C14.8028 15.5842 14.5833 16.1141 14.5833 16.6667C14.5833 17.2192 14.8028 17.7491 15.1935 18.1398C15.5842 18.5305 16.1141 18.75 16.6667 18.75C17.2192 18.75 17.7491 18.5305 18.1398 18.1398C18.5305 17.7491 18.75 17.2192 18.75 16.6667C18.75 16.1141 18.5305 15.5842 18.1398 15.1935C17.7491 14.8028 17.2192 14.5833 16.6667 14.5833Z" fill="#7562E0"/>
    </g>
    <defs>
        <clipPath id="clip0_45106_60">
            <rect width="50" height="50" fill="white"/>
        </clipPath>
    </defs>
</svg>




