<svg width="50" height="50" viewBox="0 0 50 50" fill="none" xmlns="http://www.w3.org/2000/svg">
    <g clip-path="url(#clip0_45218_86)">
        <path d="M38.7412 0H12.1787C5.70662 0 0.459961 5.24666 0.459961 11.7188V38.2812C0.459961 44.7533 5.70662 50 12.1787 50H38.7412C45.2133 50 50.46 44.7533 50.46 38.2812V11.7188C50.46 5.24666 45.2133 0 38.7412 0Z" fill="#99424F"/>
        <path d="M42.1305 24.7061C42.1305 22.3535 40.5133 20.3744 38.342 19.809L43.2049 5.46875H19.1047L23.9791 19.8543C21.8754 20.465 20.3262 22.4102 20.3262 24.7172C20.3262 26.4137 21.1742 27.9178 22.4635 28.8451C21.9547 29.5689 21.3666 30.2363 20.6992 30.8695C19.4439 32.0457 18.0529 32.9504 16.5488 33.5498C15.1916 32.6338 14.6035 31.0166 15.1351 29.5689C17.2047 28.9357 18.7088 27.0018 18.7088 24.7285C18.7088 21.9352 16.4357 19.6732 13.6535 19.6732C10.8601 19.6732 8.5871 21.9465 8.5871 24.7398C8.5871 26.1195 9.15253 27.3863 10.0572 28.291C9.97811 28.4494 9.89901 28.6076 9.81972 28.7773C9.0619 30.3381 8.20253 32.1023 7.8744 34.0814C7.21854 38.0396 8.29296 41.2176 10.8828 43.0158C12.3418 44.0223 13.9476 44.5312 15.6779 44.5312C18.6523 44.5312 21.6719 43.0385 24.5896 41.5908C26.6707 40.5617 28.8193 39.4873 30.9342 38.967C31.7146 38.7748 32.5289 38.6617 33.3885 38.5373C35.1301 38.2885 36.9283 38.0283 38.5455 37.0896C40.4342 35.9928 41.7234 34.1605 42.0967 32.057C42.3793 30.4398 42.0967 28.8113 41.3728 27.3863C41.8592 26.6059 42.1305 25.6898 42.1305 24.7061ZM39.9252 24.7061C39.9252 26.2779 38.6473 27.5559 37.0752 27.5559C35.5033 27.5559 34.2254 26.2779 34.2254 24.7061C34.2254 24.1971 34.3609 23.7107 34.5984 23.2924C34.691 23.1328 34.797 22.9814 34.9152 22.8398C35.0283 22.7043 35.1641 22.5799 35.3109 22.4668L35.3223 22.4555C35.4127 22.3875 35.5146 22.3197 35.6164 22.2518C35.6164 22.2518 35.6277 22.2518 35.6277 22.2404C35.6728 22.218 35.7182 22.184 35.7633 22.1613C35.7746 22.1613 35.7859 22.15 35.7973 22.15C35.8426 22.1273 35.899 22.1049 35.9557 22.0822C36.0121 22.0596 36.0687 22.0369 36.1139 22.0143C36.1252 22.0143 36.1365 22.0029 36.1478 22.0029C36.1932 21.9918 36.2383 21.9691 36.2836 21.9578C36.2949 21.9578 36.3176 21.9465 36.3289 21.9465C36.3853 21.9352 36.4307 21.9238 36.4871 21.9125H36.4984L36.6682 21.8787C36.6795 21.8787 36.7019 21.8787 36.7133 21.8674C36.7586 21.8674 36.8039 21.8561 36.849 21.8561H36.9057C36.9621 21.8561 37.0187 21.8447 37.0865 21.8447H37.2336C37.2789 21.8447 37.3127 21.8447 37.358 21.8561H37.3807C37.4711 21.8674 37.5615 21.8787 37.6519 21.9012C38.9412 22.1727 39.9252 23.3262 39.9252 24.7061ZM22.26 7.73066H40.0496L35.967 19.775C35.7973 19.809 35.6277 19.8656 35.458 19.9221L31.1605 11.1574L26.8516 19.8656C26.682 19.809 26.501 19.775 26.3201 19.7412L22.26 7.73066ZM30.3461 23.7221C30.1312 22.659 29.5885 21.709 28.8193 21.0078L31.1605 16.2805L33.524 21.1096C32.8228 21.8107 32.3141 22.7043 32.1103 23.7221H30.3461ZM24.6803 21.9352C24.7367 21.9238 24.782 21.9125 24.8385 21.9012H24.8724C24.9178 21.8898 24.9629 21.8898 25.0082 21.8787H25.0533C25.0986 21.8787 25.1326 21.8674 25.1777 21.8674H25.6189C25.6641 21.8674 25.698 21.8787 25.732 21.8787C25.7547 21.8787 25.7658 21.8787 25.7885 21.8898C25.8338 21.9012 25.8678 21.9012 25.9129 21.9125C25.9242 21.9125 25.9355 21.9125 25.9582 21.9238C26.0146 21.9352 26.0713 21.9465 26.1164 21.9578H26.1277C26.173 21.9691 26.2183 21.9805 26.2635 22.0029C26.2748 22.0029 26.2861 22.0143 26.3088 22.0143C26.3428 22.0256 26.3879 22.0369 26.4219 22.0596C26.4332 22.0596 26.4445 22.0709 26.4558 22.0709C26.501 22.0936 26.5463 22.1049 26.5914 22.1273H26.6027C26.6594 22.15 26.7045 22.1727 26.7498 22.2066H26.7611C26.8064 22.2293 26.8516 22.2631 26.8969 22.2857C26.9082 22.2857 26.9082 22.2971 26.9195 22.2971C26.9646 22.3197 26.9986 22.3535 27.0439 22.3762L27.0551 22.3875C27.1908 22.4893 27.3152 22.6023 27.4396 22.7154L27.451 22.7268C27.5641 22.8512 27.6771 22.9869 27.7676 23.134C28.071 23.5979 28.2322 24.1404 28.2312 24.6947C28.2312 26.2666 26.9533 27.5445 25.3814 27.5445C23.8094 27.5445 22.5314 26.2666 22.5314 24.6947C22.5201 23.3715 23.4361 22.2518 24.6803 21.9352ZM13.5517 21.8561C15.1238 21.8561 16.4017 23.134 16.4017 24.7061C16.4017 26.2779 15.1238 27.5559 13.5517 27.5559C11.9799 27.5559 10.7017 26.2779 10.7017 24.7061C10.7017 23.134 11.9799 21.8561 13.5517 21.8561ZM39.8574 31.6611C39.6086 33.1088 38.715 34.3754 37.4031 35.1332C36.1705 35.8457 34.6551 36.0719 33.0603 36.298C32.1896 36.4225 31.2736 36.5582 30.3914 36.773C28.0391 37.3498 25.7771 38.4807 23.5832 39.5664C20.7785 40.9574 18.132 42.2693 15.6779 42.2693C14.4 42.2693 13.2578 41.9074 12.1721 41.1498C9.68397 39.4307 9.80839 36.2076 10.1025 34.4434C10.374 32.7922 11.1316 31.2428 11.8555 29.7613C11.9006 29.6707 11.9346 29.5916 11.9799 29.5012C12.2332 29.5927 12.4944 29.6609 12.7601 29.7047C12.3305 32.1023 13.5517 34.5791 15.9267 35.8004L16.3564 36.0266L16.8201 35.857C18.7994 35.1559 20.6314 34.0135 22.2486 32.4867C23.1648 31.6273 23.9451 30.7 24.601 29.6934C24.8611 29.7387 25.1213 29.75 25.3814 29.75C27.7338 29.75 29.7129 28.1326 30.2783 25.9613H32.1783C32.7437 28.1439 34.7228 29.75 37.0752 29.75C38.0139 29.75 38.8848 29.4898 39.6312 29.0488C39.9252 29.8969 40.0156 30.7791 39.8574 31.6611Z" fill="white"/>
    </g>
    <defs>
        <clipPath id="clip0_45218_86">
            <rect width="50" height="50" fill="white" transform="translate(0.459961)"/>
        </clipPath>
    </defs>
</svg>

