<?xml version="1.0" standalone="no"?>
<!DOCTYPE svg PUBLIC "-//W3C//DTD SVG 20010904//EN"
 "http://www.w3.org/TR/2001/REC-SVG-20010904/DTD/svg10.dtd">
<svg version="1.0" xmlns="http://www.w3.org/2000/svg"
 width="120.000000pt" height="120.000000pt" viewBox="0 0 120.000000 120.000000"
 preserveAspectRatio="xMidYMid meet">

<g transform="translate(0.000000,120.000000) scale(0.100000,-0.100000)"
fill="#000000" stroke="none">
<path d="M524 1159 c-196 -46 -319 -288 -270 -534 9 -48 31 -117 47 -153 22
-46 31 -80 30 -109 -3 -82 80 -123 134 -68 48 47 21 128 -45 137 -34 4 -74 80
-94 180 -26 126 -18 212 30 319 46 101 145 169 248 169 41 0 110 -35 142 -73
34 -40 72 -121 80 -169 5 -30 12 -39 37 -47 17 -6 33 -9 36 -6 9 10 -17 114
-42 170 -64 139 -202 215 -333 184z"/>
<path d="M485 808 c-46 -25 -60 -82 -30 -125 28 -40 104 -38 128 3 13 23 126
17 215 -11 258 -82 404 -317 294 -477 -60 -87 -176 -120 -297 -84 -46 14 -49
14 -76 -7 -15 -12 -28 -25 -28 -28 -1 -8 98 -37 155 -45 63 -8 162 16 224 54
170 105 168 334 -5 508 -103 102 -275 173 -422 174 -33 0 -55 5 -60 14 -9 16
-46 36 -65 36 -7 0 -22 -6 -33 -12z"/>
<path d="M111 575 c-74 -78 -105 -150 -105 -245 0 -127 53 -213 163 -264 72
-33 222 -29 321 8 141 53 246 138 312 254 16 28 36 52 44 52 27 0 54 39 54 78
0 75 -83 110 -135 57 -27 -26 -32 -60 -14 -99 10 -21 7 -30 -19 -68 -67 -98
-193 -190 -301 -222 -75 -22 -185 -21 -237 3 -92 42 -148 154 -124 249 13 54
61 133 97 162 22 17 24 25 19 55 -4 19 -11 35 -15 35 -4 0 -31 -25 -60 -55z"/>
</g>
</svg>
