<svg width="50" height="50" viewBox="0 0 50 50" fill="none" xmlns="http://www.w3.org/2000/svg">
<path d="M32.3984 8.50315L32.6063 3.54534L36.8563 3.28284L37.0469 8.32971C37.05 8.41059 37.0239 8.48988 36.9734 8.55315C36.946 8.58746 36.912 8.61592 36.8734 8.63684C36.8348 8.65777 36.7924 8.67072 36.7487 8.67495C36.7049 8.67917 36.6608 8.67458 36.6189 8.66144C36.577 8.6483 36.5382 8.62689 36.5047 8.59846L34.8641 7.31721L32.9219 8.77659C32.8872 8.80367 32.8474 8.82355 32.8049 8.83508C32.7624 8.84661 32.718 8.84955 32.6744 8.84373C32.6307 8.83791 32.5887 8.82345 32.5507 8.80119C32.5127 8.77893 32.4795 8.74932 32.4531 8.71409C32.4109 8.65227 32.3916 8.57768 32.3984 8.50315Z" fill="white"/>
<path d="M32.6063 3.54374L32.3985 8.50312C32.3952 8.57916 32.419 8.6539 32.4656 8.71406C32.492 8.74929 32.5252 8.7789 32.5632 8.80116C32.6012 8.82342 32.6432 8.83788 32.6869 8.8437C32.7305 8.84952 32.7749 8.84658 32.8174 8.83505C32.8599 8.82352 32.8997 8.80363 32.9344 8.77656L34.8766 7.31718L36.5172 8.59843C36.5507 8.62686 36.5895 8.64827 36.6314 8.66141C36.6733 8.67455 36.7174 8.67914 36.7612 8.67492C36.8049 8.67069 36.8473 8.65773 36.8859 8.63681C36.9245 8.61589 36.9585 8.58743 36.9859 8.55312C37.0364 8.48985 37.0625 8.41056 37.0594 8.32968L36.8563 3.28124L39.3031 3.12499C39.5932 3.10569 39.8843 3.1438 40.1597 3.23714C40.435 3.33048 40.6893 3.47721 40.9078 3.66893C41.1264 3.86066 41.305 4.09361 41.4334 4.35445C41.5619 4.6153 41.6376 4.89891 41.6563 5.18906V44.675C41.6538 45.2596 41.4197 45.8194 41.0053 46.2318C40.5909 46.6441 40.0299 46.8754 39.4453 46.875H39.3422L9.73595 45.5562C9.18144 45.5335 8.65579 45.303 8.26351 44.9104C7.87123 44.5178 7.64106 43.992 7.61876 43.4375L6.25001 7.32812C6.23029 6.75222 6.43666 6.19145 6.82501 5.76573C7.21336 5.34001 7.75285 5.08312 8.32814 5.04999L32.6047 3.54531L32.6063 3.54374Z" fill="#FF4785"/>
<path d="M26.9578 19.6156C26.9578 20.4703 32.7703 20.0609 33.5516 19.4594C33.5516 13.6312 30.3984 10.5687 24.6234 10.5687C18.8484 10.5687 15.6141 13.6781 15.6141 18.3437C15.6141 26.4687 26.6719 26.625 26.6719 31.0562C26.7083 31.3237 26.6826 31.596 26.597 31.8521C26.5114 32.1081 26.3681 32.341 26.1781 32.5328C25.9881 32.7246 25.7565 32.8702 25.5013 32.9582C25.2461 33.0463 24.9741 33.0744 24.7062 33.0406C22.9453 33.0406 22.2484 32.1469 22.3312 29.1156C22.3312 28.4578 15.6125 28.2515 15.4094 29.1156C14.8875 36.4594 19.5047 38.5844 24.7844 38.5844C29.9031 38.5844 33.9172 35.8765 33.9172 30.9781C33.9172 22.2703 22.6953 22.5047 22.6953 18.189C22.6719 17.9134 22.7107 17.6361 22.809 17.3775C22.9073 17.1189 23.0625 16.8858 23.2631 16.6954C23.4638 16.505 23.7047 16.3621 23.968 16.2774C24.2313 16.1928 24.5104 16.1684 24.7844 16.2062C25.6062 16.2062 27.0812 16.35 26.9578 19.6156Z" fill="white"/>
</svg>

