<?xml version="1.0" standalone="no"?>
<!DOCTYPE svg PUBLIC "-//W3C//DTD SVG 20010904//EN"
 "http://www.w3.org/TR/2001/REC-SVG-20010904/DTD/svg10.dtd">
<svg version="1.0" xmlns="http://www.w3.org/2000/svg"
 width="120.000000pt" height="120.000000pt" viewBox="0 0 120.000000 120.000000"
 preserveAspectRatio="xMidYMid meet">

<g transform="translate(0.000000,120.000000) scale(0.100000,-0.100000)"
fill="#000000" stroke="none">
<path d="M0 600 l0 -600 600 0 600 0 0 600 0 600 -600 0 -600 0 0 -600z m690
-5 l0 -55 -80 0 -80 0 0 -220 0 -220 -55 0 -55 0 0 220 0 219 -77 3 -78 3 -3
53 -3 52 215 0 216 0 0 -55z m332 30 c58 -44 57 -70 -5 -101 -27 -15 -31 -14
-51 5 -39 36 -96 25 -96 -19 0 -33 17 -49 100 -87 36 -17 76 -41 89 -53 78
-75 62 -203 -32 -252 -55 -28 -155 -30 -210 -3 -43 20 -97 70 -97 89 0 7 20
24 46 37 42 22 46 23 55 6 26 -45 122 -63 154 -27 32 36 13 67 -63 101 -121
55 -162 100 -162 181 0 52 27 100 72 129 44 27 160 24 200 -6z"/>
</g>
</svg>
