<svg width="50" height="50" viewBox="0 0 50 50" fill="none" xmlns="http://www.w3.org/2000/svg">
    <g clip-path="url(#clip0_45129_468)">
        <path d="M48.7254 22.8039L27.1957 1.27498C25.9566 0.0351319 23.9457 0.0351319 22.7047 1.27498L18.2344 5.74607L23.9055 11.4172C25.2238 10.9722 26.7348 11.2707 27.7852 12.3211C28.841 13.3781 29.1371 14.9019 28.6813 16.2246L34.1469 21.6906C35.4691 21.2347 36.9953 21.5293 38.0508 22.5871C39.5274 24.0625 39.5274 26.4543 38.0508 27.9304C37.6999 28.2815 37.2833 28.56 36.8247 28.75C36.3662 28.94 35.8747 29.0378 35.3783 29.0378C34.882 29.0378 34.3905 28.94 33.9319 28.75C33.4734 28.56 33.0568 28.2815 32.7059 27.9304C32.1788 27.4028 31.8195 26.7312 31.6732 25.9999C31.5269 25.2686 31.6001 24.5104 31.8836 23.8207L26.7867 18.7238L26.7859 32.1383C27.1558 32.3203 27.4934 32.5615 27.7856 32.8523C29.2613 34.3277 29.2613 36.7187 27.7856 38.1972C26.3094 39.6726 23.9168 39.6726 22.4422 38.1972C20.9664 36.7191 20.9664 34.3281 22.4422 32.8523C22.7961 32.4986 23.2166 32.2185 23.6793 32.0281V18.4894C23.216 18.2999 22.7954 18.0195 22.4422 17.6648C21.3242 16.5476 21.0551 14.907 21.6285 13.5336L16.0375 7.94255L1.27501 22.7043C0.679426 23.3 0.344849 24.108 0.344849 24.9504C0.344849 25.7928 0.679426 26.6007 1.27501 27.1965L22.8051 48.7254C24.0449 49.9652 26.0551 49.9652 27.2969 48.7254L48.7258 27.2965C49.3212 26.7005 49.6557 25.8925 49.6556 25.0501C49.6555 24.2077 49.321 23.3997 48.7254 22.8039Z" fill="#F34F29"/>
    </g>
    <defs>
        <clipPath id="clip0_45129_468">
            <rect width="50" height="50" fill="white"/>
        </clipPath>
    </defs>
</svg>
