<svg width="50" height="50" viewBox="0 0 50 50" fill="none" xmlns="http://www.w3.org/2000/svg">
    <path d="M35.4167 7.29175H14.5833C8.33332 7.29175 4.16666 10.4167 4.16666 17.7084V32.2918C4.16666 39.5834 8.33332 42.7084 14.5833 42.7084H35.4167C41.6667 42.7084 45.8333 39.5834 45.8333 32.2918V17.7084C45.8333 10.4167 41.6667 7.29175 35.4167 7.29175ZM36.3958 19.9793L29.875 25.1876C28.5 26.2918 26.75 26.8334 25 26.8334C23.25 26.8334 21.4792 26.2918 20.125 25.1876L13.6042 19.9793C12.9375 19.4376 12.8333 18.4376 13.3542 17.7709C13.8958 17.1042 14.875 16.9792 15.5417 17.5209L22.0625 22.7293C23.6458 24.0001 26.3333 24.0001 27.9167 22.7293L34.4375 17.5209C35.1042 16.9792 36.1042 17.0834 36.625 17.7709C37.1667 18.4376 37.0625 19.4376 36.3958 19.9793Z" fill="#7562E0"/>
</svg>
