<svg width="50" height="50" viewBox=" 0 0 50 50" fill="none"
     xmlns="http://www.w3.org/2000/svg">
    <g id="mobileHome">
        <path d="M14.9999 14.9999C14.9999 15.1989 14.9209 15.3896 14.7803 15.5303C14.6396 15.6709 14.4489 15.7499 14.2499 15.7499H3.74994C3.55103 15.7499 3.36026 15.6709 3.21961 15.5303C3.07896 15.3896 2.99994 15.1989 2.99994 14.9999V8.24994H0.749939L8.49519 1.20894C8.63327 1.0833 8.81325 1.01367 8.99994 1.01367C9.18663 1.01367 9.36661 1.0833 9.50469 1.20894L17.2499 8.24994H14.9999V14.9999Z"
              fill="currentColor"/>
    </g>
    <defs>
        <clipPath id="clip0_45165_359">
            <!--            <rect width="18" height="18" fill="white"/>-->
        </clipPath>
    </defs>

    <g id="mobileSkills">
        <path d="M17.5 4.28699V4.5H12V0H12.2603C12.5338 0 12.7962 0.0889101 12.9896 0.247113L17.198 3.69035C17.3913 3.8486 17.5 4.06321 17.5 4.28699ZM11.6562 5.625C11.0891 5.625 10.625 5.24531 10.625 4.78125V0H2.03125C1.4617 0 1 0.377754 1 0.84375V17.1562C1 17.6222 1.4617 18 2.03125 18H16.4688C17.0383 18 17.5 17.6222 17.5 17.1562V5.625H11.6562ZM6.29401 14.0803C6.27317 14.0984 6.24815 14.1131 6.22039 14.1234C6.19263 14.1337 6.16266 14.1394 6.13221 14.1402C6.10175 14.141 6.0714 14.1368 6.04289 14.1281C6.01437 14.1193 5.98826 14.106 5.96603 14.0889L3.17882 11.951C3.15567 11.9332 3.13722 11.9118 3.1246 11.888C3.11199 11.8641 3.10548 11.8384 3.10548 11.8125C3.10548 11.7865 3.11199 11.7608 3.1246 11.737C3.13722 11.7132 3.15567 11.6917 3.17882 11.674L5.96603 9.53606C5.98826 9.51901 6.01437 9.50571 6.04289 9.49691C6.0714 9.48812 6.10175 9.484 6.13221 9.48481C6.16266 9.48561 6.19263 9.49131 6.22039 9.50159C6.24815 9.51187 6.27317 9.52652 6.29401 9.54471L7.13529 10.2789C7.15655 10.2975 7.17304 10.3194 7.18377 10.3432C7.19451 10.3671 7.19927 10.3925 7.19778 10.4179C7.19629 10.4433 7.18858 10.4682 7.1751 10.4911C7.16161 10.514 7.14264 10.5345 7.11931 10.5513L5.36777 11.8125L7.11931 13.0737C7.14264 13.0905 7.16161 13.111 7.1751 13.1339C7.18858 13.1568 7.19629 13.1817 7.19778 13.2071C7.19927 13.2325 7.19451 13.2579 7.18377 13.2818C7.17304 13.3056 7.15655 13.3275 7.13529 13.3461L6.29401 14.0803ZM8.49809 15.8549L7.31847 15.5747C7.25937 15.5607 7.20951 15.528 7.17985 15.4839C7.15019 15.4398 7.14316 15.3878 7.1603 15.3394L9.8003 7.89947C9.81747 7.85112 9.85741 7.81032 9.91133 7.78606C9.96525 7.76179 10.0287 7.75603 10.0878 7.77006L11.2674 8.05025C11.2967 8.05721 11.324 8.06881 11.3478 8.08439C11.3716 8.09998 11.3914 8.11924 11.406 8.14109C11.4207 8.16294 11.43 8.18694 11.4334 8.21172C11.4367 8.2365 11.434 8.26158 11.4256 8.28552L8.78555 15.7255C8.77707 15.7494 8.76291 15.7718 8.74387 15.7913C8.72483 15.8107 8.70129 15.8269 8.6746 15.8389C8.6479 15.851 8.61857 15.8586 8.58829 15.8613C8.558 15.864 8.52735 15.8619 8.49809 15.8549ZM15.4071 11.951L12.6199 14.0889C12.5977 14.106 12.5716 14.1193 12.5431 14.1281C12.5145 14.1368 12.4842 14.141 12.4537 14.1402C12.4233 14.1394 12.3933 14.1337 12.3655 14.1234C12.3378 14.1131 12.3128 14.0984 12.2919 14.0803L11.4506 13.346C11.4293 13.3275 11.4129 13.3056 11.4021 13.2817C11.3914 13.2579 11.3866 13.2325 11.3881 13.2071C11.3896 13.1817 11.3973 13.1568 11.4108 13.1338C11.4243 13.1109 11.4433 13.0905 11.4666 13.0737L13.2182 11.8125L11.4666 10.5513C11.4433 10.5345 11.4243 10.514 11.4108 10.4911C11.3974 10.4682 11.3896 10.4433 11.3882 10.4179C11.3867 10.3925 11.3914 10.3671 11.4022 10.3432C11.4129 10.3194 11.4294 10.2975 11.4506 10.2789L12.292 9.54471C12.3128 9.52652 12.3378 9.51187 12.3656 9.50159C12.3934 9.49131 12.4233 9.48561 12.4538 9.48481C12.4842 9.484 12.5146 9.48812 12.5431 9.49691C12.5716 9.50571 12.5977 9.51901 12.62 9.53606L15.4072 11.674C15.4303 11.6917 15.4488 11.7132 15.4614 11.737C15.474 11.7608 15.4805 11.7865 15.4805 11.8125C15.4805 11.8385 15.474 11.8641 15.4613 11.888C15.4487 11.9118 15.4303 11.9332 15.4071 11.951Z"
              fill="currentColor"/>
    </g>
    <defs>
        <clipPath id="clip0_45165_362">
            <!--                <rect width="16.5" height="18" fill="white" transform="translate(1)"/>-->
        </clipPath>
    </defs>

    <g id="portfolio">
        <path d="M6.75 9.75V12H11.25V9.75H16.5V15C16.5 15.1989 16.421 15.3897 16.2803 15.5303C16.1397 15.671 15.9489 15.75 15.75 15.75H2.25C2.05109 15.75 1.86032 15.671 1.71967 15.5303C1.57902 15.3897 1.5 15.1989 1.5 15V9.75H6.75ZM8.25 8.25H9.75V10.5H8.25V8.25ZM5.25 3.75V1.5C5.25 1.30109 5.32902 1.11032 5.46967 0.96967C5.61032 0.829018 5.80109 0.75 6 0.75H12C12.1989 0.75 12.3897 0.829018 12.5303 0.96967C12.671 1.11032 12.75 1.30109 12.75 1.5V3.75H15.75C15.9489 3.75 16.1397 3.82902 16.2803 3.96967C16.421 4.11032 16.5 4.30109 16.5 4.5V8.25H11.25V6.75H6.75V8.25H1.5V4.5C1.5 4.30109 1.57902 4.11032 1.71967 3.96967C1.86032 3.82902 2.05109 3.75 2.25 3.75H5.25ZM6.75 2.25V3.75H11.25V2.25H6.75Z"
              fill="currentColor"/>
    </g>
    <defs>
        <clipPath id="clip0_45165_368">
            <!--                <rect width="18" height="18" fill="white"/>-->
        </clipPath>
    </defs>
    <g id="contacts">
        <path d="M4.84125 14.25L1.5 16.875V3C1.5 2.80109 1.57902 2.61032 1.71967 2.46967C1.86032 2.32902 2.05109 2.25 2.25 2.25H15.75C15.9489 2.25 16.1397 2.32902 16.2803 2.46967C16.421 2.61032 16.5 2.80109 16.5 3V13.5C16.5 13.6989 16.421 13.8897 16.2803 14.0303C16.1397 14.171 15.9489 14.25 15.75 14.25H4.84125Z"
              fill="currentColor"/>
    </g>
    <defs>
        <clipPath id="clip0_45165_374">
            <!--                <rect width="18" height="18" fill="white"/>-->
        </clipPath>
    </defs>
    <g id="telegram">
        <path fill-rule="evenodd" clip-rule="evenodd"
              d="M41.2021 9.22909C41.7169 9.01241 42.2804 8.93768 42.8339 9.01267C43.3874 9.08767 43.9107 9.30965 44.3493 9.65552C44.788 10.0014 45.1259 10.4585 45.3279 10.9793C45.5299 11.5 45.5886 12.0654 45.4979 12.6166L40.7729 41.277C40.3146 44.0416 37.2812 45.627 34.7458 44.2499C32.625 43.0978 29.475 41.3228 26.6417 39.4708C25.225 38.5437 20.8854 35.5749 21.4188 33.4624C21.8771 31.6562 29.1687 24.8687 33.3354 20.8333C34.9708 19.2478 34.225 18.3333 32.2938 19.7916C27.4979 23.4124 19.7979 28.9187 17.2521 30.4687C15.0063 31.8353 13.8354 32.0687 12.4354 31.8353C9.88125 31.4103 7.5125 30.752 5.57917 29.9499C2.96667 28.8666 3.09375 25.2749 5.57708 24.2291L41.2021 9.22909Z"
              fill="#7562E0"/>
    </g>
    <defs>
        <clipPath id="clip0_45106_56">
            <!--                <rect width="50" height="50" fill="white"/>-->
        </clipPath>
    </defs>
    <g id="github">
        <path d="M25 4.16675C22.2641 4.16675 19.555 4.70562 17.0274 5.75259C14.4998 6.79956 12.2032 8.33414 10.2686 10.2687C6.36159 14.1757 4.16666 19.4747 4.16666 25.0001C4.16666 34.2084 10.1458 42.0209 18.4167 44.7917C19.4583 44.9584 19.7917 44.3126 19.7917 43.7501V40.2292C14.0208 41.4792 12.7917 37.4376 12.7917 37.4376C11.8333 35.0209 10.4792 34.3751 10.4792 34.3751C8.58332 33.0834 10.625 33.1251 10.625 33.1251C12.7083 33.2709 13.8125 35.2709 13.8125 35.2709C15.625 38.4376 18.6875 37.5001 19.875 37.0001C20.0625 35.6459 20.6042 34.7292 21.1875 34.2084C16.5625 33.6876 11.7083 31.8959 11.7083 23.9584C11.7083 21.6459 12.5 19.7917 13.8542 18.3126C13.6458 17.7917 12.9167 15.6251 14.0625 12.8126C14.0625 12.8126 15.8125 12.2501 19.7917 14.9376C21.4375 14.4792 23.2292 14.2501 25 14.2501C26.7708 14.2501 28.5625 14.4792 30.2083 14.9376C34.1875 12.2501 35.9375 12.8126 35.9375 12.8126C37.0833 15.6251 36.3542 17.7917 36.1458 18.3126C37.5 19.7917 38.2917 21.6459 38.2917 23.9584C38.2917 31.9167 33.4167 33.6667 28.7708 34.1876C29.5208 34.8334 30.2083 36.1042 30.2083 38.0417V43.7501C30.2083 44.3126 30.5417 44.9792 31.6042 44.7917C39.875 42.0001 45.8333 34.2084 45.8333 25.0001C45.8333 22.2642 45.2945 19.5551 44.2475 17.0275C43.2005 14.4999 41.6659 12.2032 39.7314 10.2687C37.7968 8.33414 35.5002 6.79956 32.9726 5.75259C30.4449 4.70562 27.7359 4.16675 25 4.16675Z"
              fill="#7562E0"/>
    </g>

    <g id="gmail">
        <path d="M35.4167 7.29175H14.5833C8.33332 7.29175 4.16666 10.4167 4.16666 17.7084V32.2918C4.16666 39.5834 8.33332 42.7084 14.5833 42.7084H35.4167C41.6667 42.7084 45.8333 39.5834 45.8333 32.2918V17.7084C45.8333 10.4167 41.6667 7.29175 35.4167 7.29175ZM36.3958 19.9793L29.875 25.1876C28.5 26.2918 26.75 26.8334 25 26.8334C23.25 26.8334 21.4792 26.2918 20.125 25.1876L13.6042 19.9793C12.9375 19.4376 12.8333 18.4376 13.3542 17.7709C13.8958 17.1042 14.875 16.9792 15.5417 17.5209L22.0625 22.7293C23.6458 24.0001 26.3333 24.0001 27.9167 22.7293L34.4375 17.5209C35.1042 16.9792 36.1042 17.0834 36.625 17.7709C37.1667 18.4376 37.0625 19.4376 36.3958 19.9793Z"
              fill="#7562E0"/>
    </g>
    <g id="linkedIn">
        <path fill-rule="evenodd" clip-rule="evenodd"
              d="M37.5 6.25C39.1576 6.25 40.7473 6.90848 41.9194 8.08058C43.0915 9.25269 43.75 10.8424 43.75 12.5V37.5C43.75 39.1576 43.0915 40.7473 41.9194 41.9194C40.7473 43.0915 39.1576 43.75 37.5 43.75H12.5C10.8424 43.75 9.25269 43.0915 8.08058 41.9194C6.90848 40.7473 6.25 39.1576 6.25 37.5V12.5C6.25 10.8424 6.90848 9.25269 8.08058 8.08058C9.25269 6.90848 10.8424 6.25 12.5 6.25H37.5ZM16.6667 20.8333C16.1141 20.8333 15.5842 21.0528 15.1935 21.4435C14.8028 21.8342 14.5833 22.3641 14.5833 22.9167V33.3333C14.5833 33.8859 14.8028 34.4158 15.1935 34.8065C15.5842 35.1972 16.1141 35.4167 16.6667 35.4167C17.2192 35.4167 17.7491 35.1972 18.1398 34.8065C18.5305 34.4158 18.75 33.8859 18.75 33.3333V22.9167C18.75 22.3641 18.5305 21.8342 18.1398 21.4435C17.7491 21.0528 17.2192 20.8333 16.6667 20.8333ZM22.9167 18.75C22.3641 18.75 21.8342 18.9695 21.4435 19.3602C21.0528 19.7509 20.8333 20.2808 20.8333 20.8333V33.3333C20.8333 33.8859 21.0528 34.4158 21.4435 34.8065C21.8342 35.1972 22.3641 35.4167 22.9167 35.4167C23.4692 35.4167 23.9991 35.1972 24.3898 34.8065C24.7805 34.4158 25 33.8859 25 33.3333V25.7083C25.6354 24.9917 26.7083 24.15 27.9021 23.6396C28.5958 23.3438 29.6396 23.2229 30.3646 23.4521C30.6051 23.5131 30.8193 23.6505 30.975 23.8437C31.0833 23.9896 31.25 24.3146 31.25 25V33.3333C31.25 33.8859 31.4695 34.4158 31.8602 34.8065C32.2509 35.1972 32.7808 35.4167 33.3333 35.4167C33.8859 35.4167 34.4158 35.1972 34.8065 34.8065C35.1972 34.4158 35.4167 33.8859 35.4167 33.3333V25C35.4167 23.6042 35.0625 22.3625 34.325 21.3667C33.6464 20.4637 32.6966 19.8015 31.6146 19.4771C29.7354 18.8875 27.6542 19.2146 26.2646 19.8104C25.8194 20.001 25.3859 20.218 24.9667 20.4604C24.8793 19.9804 24.6263 19.5462 24.2517 19.2337C23.877 18.9211 23.4046 18.7499 22.9167 18.75ZM16.6667 14.5833C16.1141 14.5833 15.5842 14.8028 15.1935 15.1935C14.8028 15.5842 14.5833 16.1141 14.5833 16.6667C14.5833 17.2192 14.8028 17.7491 15.1935 18.1398C15.5842 18.5305 16.1141 18.75 16.6667 18.75C17.2192 18.75 17.7491 18.5305 18.1398 18.1398C18.5305 17.7491 18.75 17.2192 18.75 16.6667C18.75 16.1141 18.5305 15.5842 18.1398 15.1935C17.7491 14.8028 17.2192 14.5833 16.6667 14.5833Z"
              fill="#7562E0"/>
    </g>
    <defs>
        <clipPath id="clip0_45106_60">
            <!--            <rect width="50" height="50" fill="white"/>-->
        </clipPath>
    </defs>
    <defs>
        <clipPath id="clip0_45106_60">
            <rect width="50" height="50" fill="white"/>
        </clipPath>
    </defs>
    <g id="react">
        <path d="M25 28.8656C27.1574 28.8656 28.9062 27.1167 28.9062 24.9594C28.9062 22.802 27.1574 21.0531 25 21.0531C22.8426 21.0531 21.0938 22.802 21.0938 24.9594C21.0938 27.1167 22.8426 28.8656 25 28.8656Z"
              fill="#00D8FF"/>
        <path d="M25 33.9156C20.3049 34.0292 15.6216 33.3963 11.125 32.0406C9.04785 31.3822 7.11052 30.3449 5.41094 28.9812C4.76239 28.5154 4.2223 27.9147 3.82772 27.2205C3.43314 26.5263 3.19342 25.7549 3.125 24.9594C3.125 22.3766 5.9625 19.8453 10.7156 18.1891C15.3324 16.7215 20.1561 16.0102 25 16.0828C29.7792 16.016 34.5383 16.7144 39.0969 18.1516C41.0973 18.7893 42.969 19.7764 44.625 21.0672C45.2625 21.5113 45.7945 22.0902 46.1833 22.7628C46.5721 23.4354 46.8083 24.1853 46.875 24.9594C46.875 27.6437 43.7031 30.3641 38.5938 32.0547C34.1843 33.3662 29.5997 33.9938 25 33.9156ZM25 17.9516C20.3658 17.8896 15.7513 18.5658 11.3297 19.9547C6.95469 21.4812 4.99375 23.5687 4.99375 24.9547C4.99375 26.4047 7.10156 28.6844 11.7297 30.2672C16.0314 31.5576 20.5103 32.1583 25 32.0469C29.4006 32.1256 33.7874 31.5301 38.0078 30.2812C42.8125 28.6891 45 26.4062 45 24.9594C44.9212 24.4628 44.7402 23.9881 44.4686 23.565C44.197 23.142 43.8406 22.7799 43.4219 22.5016C41.9402 21.3565 40.2683 20.4816 38.4828 19.9172C34.1219 18.548 29.5703 17.8845 25 17.9516Z"
              fill="#00D8FF"/>
        <path d="M16.125 44.4422C15.3961 44.459 14.6758 44.2821 14.0375 43.9297C11.8 42.6391 11.025 38.9172 11.9641 33.9719C12.9994 29.2393 14.7934 24.7052 17.2766 20.5454C19.6058 16.3721 22.5878 12.5984 26.1094 9.36724C27.6612 7.95271 29.4514 6.82434 31.3969 6.03442C32.1006 5.70464 32.8682 5.53369 33.6453 5.53369C34.4224 5.53369 35.1901 5.70464 35.8938 6.03442C38.2203 7.37505 38.9906 11.4813 37.9047 16.7516C36.8373 21.2275 35.0899 25.5132 32.7234 29.4594C30.4761 33.5834 27.5881 37.3243 24.1672 40.5422C22.559 42.0122 20.6927 43.1718 18.6625 43.9626C17.8497 44.2642 16.9918 44.4264 16.125 44.4422ZM18.8953 21.4735C16.5267 25.4568 14.8073 29.7918 13.8016 34.3157C12.9375 38.8704 13.7672 41.6094 14.9734 42.3063C16.2234 43.0297 19.2578 42.3438 22.9422 39.1251C26.2079 36.0422 28.9644 32.4613 31.1094 28.5157C33.3765 24.743 35.0526 20.6456 36.0797 16.3657C37.1016 11.4047 36.2188 8.36724 34.9656 7.64536C34.496 7.4654 33.9941 7.38485 33.4917 7.40878C32.9893 7.43272 32.4973 7.56063 32.0469 7.78442C30.3151 8.49903 28.723 9.51353 27.3438 10.7813C23.9792 13.8763 21.1308 17.489 18.9063 21.4829L18.8953 21.4735Z"
              fill="#00D8FF"/>
        <path d="M33.8703 44.4625C31.7531 44.4625 29.0641 43.1812 26.2641 40.7734C22.6808 37.5129 19.6484 33.6943 17.2844 29.4656C14.8324 25.363 13.0526 20.8946 12.0125 16.2297C11.5614 14.1773 11.4778 12.0612 11.7656 9.97965C11.8322 9.20748 12.0673 8.4593 12.4544 7.78788C12.8416 7.11646 13.3713 6.53814 14.0063 6.09372C16.3297 4.7484 20.2719 6.13122 24.2953 9.70309C27.64 12.8628 30.4803 16.5167 32.7172 20.5375C35.1677 24.5443 36.9661 28.9149 38.0453 33.4859C38.5158 35.6136 38.5884 37.8099 38.2594 39.964C38.1811 40.7584 37.932 41.5265 37.529 42.2156C37.1261 42.9046 36.5789 43.4984 35.925 43.9562C35.2971 44.3042 34.588 44.4789 33.8703 44.4625ZM18.9016 28.525C21.1694 32.5663 24.0661 36.2208 27.4828 39.3515C30.9969 42.375 33.7844 43.025 34.9828 42.3203C36.2328 41.5937 37.1547 38.6281 36.2047 33.8297C35.1639 29.4655 33.4389 25.2936 31.0938 21.4687C28.9591 17.6205 26.248 14.1216 23.0547 11.0937C19.2672 7.73122 16.1953 6.97965 14.9438 7.70465C14.5537 8.02166 14.2335 8.4161 14.0036 8.86307C13.7737 9.31004 13.6389 9.79984 13.6078 10.3015C13.3594 12.1579 13.4403 14.0436 13.8469 15.8718C14.8473 20.333 16.5543 24.6056 18.9031 28.5281L18.9016 28.525Z"
              fill="#00D8FF"/>
    </g>
    <g id="redux">
        <path d="M34.6445 34.418C31.1289 41.6055 24.9727 46.4414 16.8281 48.0313C15.5794 48.3373 14.2974 48.4869 13.0117 48.4766C8.32421 48.4766 4.02734 46.5234 1.9414 43.3242C-0.859381 39.0625 -1.81251 30.0273 7.42187 23.3437C7.60937 24.3633 7.99218 25.7617 8.24609 26.5898C6.43333 27.9366 4.94951 29.6768 3.90624 31.6797C2.18749 35.0547 2.3789 38.4258 4.41406 41.543C5.82031 43.6445 8.04687 44.9219 10.9102 45.3125C14.4865 45.7652 18.1146 45.0819 21.2812 43.3594C26.2461 40.75 29.5547 37.6328 31.7187 33.3711C31.1068 32.7387 30.7446 31.9061 30.6992 31.0273C30.6665 30.0843 31.0093 29.1668 31.6522 28.4762C32.2952 27.7857 33.1859 27.3784 34.1289 27.3438H34.2617C35.1789 27.3392 36.0627 27.6873 36.7304 28.3162C37.398 28.9451 37.7983 29.8066 37.8485 30.7224C37.8987 31.6382 37.5949 32.5382 37 33.2363C36.405 33.9344 35.5645 34.377 34.6523 34.4727L34.6445 34.418ZM45.8437 26.5273C50.6133 31.9336 50.7422 38.2969 48.8984 41.9883C47.1797 45.3594 42.6484 48.7344 36.5547 48.7344C33.71 48.6761 30.9117 48.0032 28.3516 46.7617C29.2461 46.125 30.5156 45.1055 31.2148 44.4687C33.1889 45.3244 35.3135 45.7785 37.4648 45.8047C41.4102 45.8047 44.3984 43.9609 46.1797 40.5898C47.3242 38.3633 47.3906 35.7539 46.3086 33.082C44.9811 29.7201 42.6185 26.8677 39.5625 24.9375C35.5534 22.2349 30.8271 20.7942 25.9922 20.8008H24.8477C24.5808 21.4173 24.1466 21.9468 23.5943 22.3292C23.042 22.7117 22.3936 22.9319 21.7227 22.9648H21.6016C20.6735 22.9534 19.7864 22.5807 19.1288 21.9258C18.4711 21.2708 18.0947 20.3853 18.0795 19.4573C18.0642 18.5293 18.4113 17.6319 19.0471 16.9557C19.6829 16.2795 20.5572 15.8778 21.4844 15.8359H21.6133C22.2594 15.8364 22.8929 16.015 23.4442 16.3519C23.9955 16.6889 24.4432 17.1713 24.7383 17.7461H25.7578C33.8828 17.7461 41.0156 20.8633 45.8437 26.5273ZM13.5195 35.5117C13.4523 34.863 13.6095 34.2109 13.9648 33.6641C10.4023 27.4922 8.49609 19.668 11.4219 11.5234C13.5195 5.40234 18.8008 1.26562 24.5273 1.26562C30.6367 1.26562 37 6.61328 37.7617 16.918C36.8086 16.6016 35.418 16.1367 34.582 15.9648C34.375 12.5937 31.5273 4.19531 24.7812 4.32031C22.3633 4.38672 18.8008 5.53125 16.9687 7.88281C14.7028 10.6901 13.3845 14.143 13.2031 17.7461C12.7734 22.6866 13.9326 27.6353 16.5117 31.8711C16.6541 31.8191 16.8058 31.7978 16.957 31.8086H17.082C18.0269 31.7915 18.9398 32.1504 19.62 32.8065C20.3002 33.4625 20.6919 34.3618 20.709 35.3066C20.7261 36.2515 20.3671 37.1644 19.7111 37.8446C19.0551 38.5248 18.1558 38.9165 17.2109 38.9336H17.082C16.1603 38.9303 15.2753 38.5715 14.6117 37.9318C13.948 37.2921 13.5568 36.421 13.5195 35.5V35.5117Z"
              fill="#764ABC"/>
    </g>
    <g id="typescript">
        <path d="M8.85547 18.3594H47.7891V47.1367H8.85547V18.3594Z" fill="white"/>
        <path d="M0.585938 24.9648V49.3789H49.4141V0.550781H0.585938V24.9648ZM39.9336 23.0117C41.1031 23.2831 42.166 23.8948 42.9883 24.7695C43.4409 25.2409 43.8344 25.7655 44.1602 26.332C44.1602 26.3945 42.0508 27.8203 40.7656 28.6172C40.7188 28.6484 40.5313 28.4453 40.3242 28.1367C40.0896 27.7319 39.7563 27.3931 39.3553 27.152C38.9543 26.9109 38.4988 26.7753 38.0313 26.7578C36.5508 26.6562 35.5977 27.4336 35.6055 28.7109C35.5936 29.0289 35.6664 29.3444 35.8164 29.625C36.1406 30.3008 36.7461 30.7031 38.6445 31.5234C42.1406 33.0273 43.6367 34.0195 44.5664 35.4297C45.6055 36.9922 45.8359 39.5156 45.1328 41.3828C44.3516 43.4141 42.4375 44.793 39.7305 45.25C38.4941 45.3917 37.2449 45.3786 36.0117 45.2109C34.1217 44.8994 32.3808 43.992 31.043 42.6211C30.5938 42.125 29.7188 40.832 29.7734 40.7383C29.9158 40.632 30.0659 40.5367 30.2227 40.4531L32.0312 39.4531L33.4336 38.6406L33.7266 39.0742C34.2211 39.7813 34.8503 40.384 35.5781 40.8477C37.1406 41.668 39.2734 41.5547 40.3281 40.6055C40.6822 40.2576 40.9032 39.7966 40.9524 39.3027C41.0016 38.8088 40.8761 38.3132 40.5977 37.9023C40.207 37.3594 39.4258 36.9023 37.2422 35.9492C34.7227 34.8633 33.6367 34.1914 32.6445 33.1211C32.0253 32.4147 31.5681 31.5814 31.3047 30.6797C31.1084 29.6494 31.0794 28.5942 31.2187 27.5547C31.7383 25.1211 33.5625 23.4219 36.2266 22.918C37.4603 22.7656 38.71 22.7998 39.9336 23.0195V23.0117ZM28.4727 25.0586V27.0586H22.1328V45.1172H17.6367V27.0547H11.2812V25.1016C11.2613 24.428 11.277 23.7539 11.3281 23.082C11.3594 23.0469 15.2344 23.0469 19.9219 23.0469H28.4492L28.4727 25.0586Z"
              fill="#007ACC"/>
    </g>
    <defs>
        <clipPath id="clip0_45129_460">
            <rect width="50" height="50" fill="white"/>
        </clipPath>
    </defs>
    <g id="javascript">
        <path d="M0 0H50V50H0V0Z" fill="#F7DF1E"/>
        <path d="M13.1469 41.7836L16.9731 39.468C17.7113 40.7768 18.3828 41.8842 19.9936 41.8842C21.5375 41.8842 22.5111 41.2803 22.5111 38.9311V22.9549H27.2098V38.9975C27.2098 43.8641 24.357 46.0793 20.1949 46.0793C16.4361 46.0793 14.2543 44.1326 13.1467 41.7832M29.7619 41.2801L33.5877 39.0651C34.5949 40.7098 35.9039 41.918 38.2195 41.918C40.1666 41.918 41.408 40.9446 41.408 39.602C41.408 37.991 40.1326 37.4203 37.9846 36.4809L36.8102 35.977C33.4201 34.5342 31.1715 32.7217 31.1715 28.8955C31.1715 25.3713 33.8564 22.6862 38.052 22.6862C41.0391 22.6862 43.1871 23.7268 44.7309 26.4453L41.0723 28.7949C40.2666 27.3518 39.3943 26.7813 38.0518 26.7813C36.6756 26.7813 35.8029 27.6539 35.8029 28.7949C35.8029 30.2045 36.6756 30.7754 38.6893 31.6481L39.8639 32.1514C43.858 33.8633 46.1066 35.6084 46.1066 39.535C46.1066 43.7643 42.784 46.0799 38.3201 46.0799C33.957 46.0799 31.1377 43.999 29.7617 41.2803"
              fill="black"/>
    </g>
    <defs>
        <clipPath id="clip0_45129_463">
            <rect width="50" height="50" fill="white"/>
        </clipPath>
    </defs>
    <g id="storybook">
        <path d="M32.3984 8.50315L32.6063 3.54534L36.8563 3.28284L37.0469 8.32971C37.05 8.41059 37.0239 8.48988 36.9734 8.55315C36.946 8.58746 36.912 8.61592 36.8734 8.63684C36.8348 8.65777 36.7924 8.67072 36.7487 8.67495C36.7049 8.67917 36.6608 8.67458 36.6189 8.66144C36.577 8.6483 36.5382 8.62689 36.5047 8.59846L34.8641 7.31721L32.9219 8.77659C32.8872 8.80367 32.8474 8.82355 32.8049 8.83508C32.7624 8.84661 32.718 8.84955 32.6744 8.84373C32.6307 8.83791 32.5887 8.82345 32.5507 8.80119C32.5127 8.77893 32.4795 8.74932 32.4531 8.71409C32.4109 8.65227 32.3916 8.57768 32.3984 8.50315Z"
              fill="white"/>
        <path d="M32.6063 3.54374L32.3985 8.50312C32.3952 8.57916 32.419 8.6539 32.4656 8.71406C32.492 8.74929 32.5252 8.7789 32.5632 8.80116C32.6012 8.82342 32.6432 8.83788 32.6869 8.8437C32.7305 8.84952 32.7749 8.84658 32.8174 8.83505C32.8599 8.82352 32.8997 8.80363 32.9344 8.77656L34.8766 7.31718L36.5172 8.59843C36.5507 8.62686 36.5895 8.64827 36.6314 8.66141C36.6733 8.67455 36.7174 8.67914 36.7612 8.67492C36.8049 8.67069 36.8473 8.65773 36.8859 8.63681C36.9245 8.61589 36.9585 8.58743 36.9859 8.55312C37.0364 8.48985 37.0625 8.41056 37.0594 8.32968L36.8563 3.28124L39.3031 3.12499C39.5932 3.10569 39.8843 3.1438 40.1597 3.23714C40.435 3.33048 40.6893 3.47721 40.9078 3.66893C41.1264 3.86066 41.305 4.09361 41.4334 4.35445C41.5619 4.6153 41.6376 4.89891 41.6563 5.18906V44.675C41.6538 45.2596 41.4197 45.8194 41.0053 46.2318C40.5909 46.6441 40.0299 46.8754 39.4453 46.875H39.3422L9.73595 45.5562C9.18144 45.5335 8.65579 45.303 8.26351 44.9104C7.87123 44.5178 7.64106 43.992 7.61876 43.4375L6.25001 7.32812C6.23029 6.75222 6.43666 6.19145 6.82501 5.76573C7.21336 5.34001 7.75285 5.08312 8.32814 5.04999L32.6047 3.54531L32.6063 3.54374Z"
              fill="#FF4785"/>
        <path d="M26.9578 19.6156C26.9578 20.4703 32.7703 20.0609 33.5516 19.4594C33.5516 13.6312 30.3984 10.5687 24.6234 10.5687C18.8484 10.5687 15.6141 13.6781 15.6141 18.3437C15.6141 26.4687 26.6719 26.625 26.6719 31.0562C26.7083 31.3237 26.6826 31.596 26.597 31.8521C26.5114 32.1081 26.3681 32.341 26.1781 32.5328C25.9881 32.7246 25.7565 32.8702 25.5013 32.9582C25.2461 33.0463 24.9741 33.0744 24.7062 33.0406C22.9453 33.0406 22.2484 32.1469 22.3312 29.1156C22.3312 28.4578 15.6125 28.2515 15.4094 29.1156C14.8875 36.4594 19.5047 38.5844 24.7844 38.5844C29.9031 38.5844 33.9172 35.8765 33.9172 30.9781C33.9172 22.2703 22.6953 22.5047 22.6953 18.189C22.6719 17.9134 22.7107 17.6361 22.809 17.3775C22.9073 17.1189 23.0625 16.8858 23.2631 16.6954C23.4638 16.505 23.7047 16.3621 23.968 16.2774C24.2313 16.1928 24.5104 16.1684 24.7844 16.2062C25.6062 16.2062 27.0812 16.35 26.9578 19.6156Z"
              fill="white"/>
    </g>
    <g clip-path="url(#clip0_45129_468)">
        <path d="M48.7254 22.8039L27.1957 1.27498C25.9566 0.0351319 23.9457 0.0351319 22.7047 1.27498L18.2344 5.74607L23.9055 11.4172C25.2238 10.9722 26.7348 11.2707 27.7852 12.3211C28.841 13.3781 29.1371 14.9019 28.6813 16.2246L34.1469 21.6906C35.4691 21.2347 36.9953 21.5293 38.0508 22.5871C39.5274 24.0625 39.5274 26.4543 38.0508 27.9304C37.6999 28.2815 37.2833 28.56 36.8247 28.75C36.3662 28.94 35.8747 29.0378 35.3783 29.0378C34.882 29.0378 34.3905 28.94 33.9319 28.75C33.4734 28.56 33.0568 28.2815 32.7059 27.9304C32.1788 27.4028 31.8195 26.7312 31.6732 25.9999C31.5269 25.2686 31.6001 24.5104 31.8836 23.8207L26.7867 18.7238L26.7859 32.1383C27.1558 32.3203 27.4934 32.5615 27.7856 32.8523C29.2613 34.3277 29.2613 36.7187 27.7856 38.1972C26.3094 39.6726 23.9168 39.6726 22.4422 38.1972C20.9664 36.7191 20.9664 34.3281 22.4422 32.8523C22.7961 32.4986 23.2166 32.2185 23.6793 32.0281V18.4894C23.216 18.2999 22.7954 18.0195 22.4422 17.6648C21.3242 16.5476 21.0551 14.907 21.6285 13.5336L16.0375 7.94255L1.27501 22.7043C0.679426 23.3 0.344849 24.108 0.344849 24.9504C0.344849 25.7928 0.679426 26.6007 1.27501 27.1965L22.8051 48.7254C24.0449 49.9652 26.0551 49.9652 27.2969 48.7254L48.7258 27.2965C49.3212 26.7005 49.6557 25.8925 49.6556 25.0501C49.6555 24.2077 49.321 23.3997 48.7254 22.8039Z"
              fill="#F34F29"/>
    </g>
    <g id="git">
        <path d="M48.7254 22.8039L27.1957 1.27498C25.9566 0.0351319 23.9457 0.0351319 22.7047 1.27498L18.2344 5.74607L23.9055 11.4172C25.2238 10.9722 26.7348 11.2707 27.7852 12.3211C28.841 13.3781 29.1371 14.9019 28.6813 16.2246L34.1469 21.6906C35.4691 21.2347 36.9953 21.5293 38.0508 22.5871C39.5274 24.0625 39.5274 26.4543 38.0508 27.9304C37.6999 28.2815 37.2833 28.56 36.8247 28.75C36.3662 28.94 35.8747 29.0378 35.3783 29.0378C34.882 29.0378 34.3905 28.94 33.9319 28.75C33.4734 28.56 33.0568 28.2815 32.7059 27.9304C32.1788 27.4028 31.8195 26.7312 31.6732 25.9999C31.5269 25.2686 31.6001 24.5104 31.8836 23.8207L26.7867 18.7238L26.7859 32.1383C27.1558 32.3203 27.4934 32.5615 27.7856 32.8523C29.2613 34.3277 29.2613 36.7187 27.7856 38.1972C26.3094 39.6726 23.9168 39.6726 22.4422 38.1972C20.9664 36.7191 20.9664 34.3281 22.4422 32.8523C22.7961 32.4986 23.2166 32.2185 23.6793 32.0281V18.4894C23.216 18.2999 22.7954 18.0195 22.4422 17.6648C21.3242 16.5476 21.0551 14.907 21.6285 13.5336L16.0375 7.94255L1.27501 22.7043C0.679426 23.3 0.344849 24.108 0.344849 24.9504C0.344849 25.7928 0.679426 26.6007 1.27501 27.1965L22.8051 48.7254C24.0449 49.9652 26.0551 49.9652 27.2969 48.7254L48.7258 27.2965C49.3212 26.7005 49.6557 25.8925 49.6556 25.0501C49.6555 24.2077 49.321 23.3997 48.7254 22.8039Z" fill="#F34F29"/>
    </g>
    <defs>
        <clipPath id="clip0_45129_468">
            <rect width="50" height="50" fill="white"/>
        </clipPath>
    </defs>
    <g id="mui">
        <svg xmlns="http://www.w3.org/2000/svg" width="50px" height="50px" viewBox="0 0 256 256" version="1.1"
             preserveAspectRatio="xMidYMid">
            <polygon fill="#00B0FF" points="0 110.848 0 0 96 55.424 96 92.3733333 32 55.424 32 129.322667"/>
            <polygon fill="#0081CB"
                     points="96 55.424 192 0 192 110.848 128 147.797333 96 129.322667 160 92.3733333 160 55.424 96 92.3733333"/>
            <polygon fill="#00B0FF" points="96 129.322667 96 166.272 160 203.221333 160 166.272"/>
            <path d="M160,203.221333 L256,147.797333 L256,73.8986667 L224,92.3733333 L224,129.322667 L160,166.272 L160,203.221333 Z M224,55.424 L224,18.4746667 L256,5.68434189e-14 L256,36.9493333 L224,55.424 Z"
                  fill="#0081CB"/>
        </svg>
    </g>
    <g id="axios">
    <path d="M21.6833 6.04167V46.4521L14.1601 50V16.3833H0L21.6833 6.04167ZM35.4413 0V32.8479H50L27.9359 43.45V3.06042L35.4413 0Z" fill="#5A29E4"/>
    </g>
    <g id="jest">
        <path d="M38.7412 0H12.1787C5.70662 0 0.459961 5.24666 0.459961 11.7188V38.2812C0.459961 44.7533 5.70662 50 12.1787 50H38.7412C45.2133 50 50.46 44.7533 50.46 38.2812V11.7188C50.46 5.24666 45.2133 0 38.7412 0Z" fill="#99424F"/>
        <path d="M42.1305 24.7061C42.1305 22.3535 40.5133 20.3744 38.342 19.809L43.2049 5.46875H19.1047L23.9791 19.8543C21.8754 20.465 20.3262 22.4102 20.3262 24.7172C20.3262 26.4137 21.1742 27.9178 22.4635 28.8451C21.9547 29.5689 21.3666 30.2363 20.6992 30.8695C19.4439 32.0457 18.0529 32.9504 16.5488 33.5498C15.1916 32.6338 14.6035 31.0166 15.1351 29.5689C17.2047 28.9357 18.7088 27.0018 18.7088 24.7285C18.7088 21.9352 16.4357 19.6732 13.6535 19.6732C10.8601 19.6732 8.5871 21.9465 8.5871 24.7398C8.5871 26.1195 9.15253 27.3863 10.0572 28.291C9.97811 28.4494 9.89901 28.6076 9.81972 28.7773C9.0619 30.3381 8.20253 32.1023 7.8744 34.0814C7.21854 38.0396 8.29296 41.2176 10.8828 43.0158C12.3418 44.0223 13.9476 44.5312 15.6779 44.5312C18.6523 44.5312 21.6719 43.0385 24.5896 41.5908C26.6707 40.5617 28.8193 39.4873 30.9342 38.967C31.7146 38.7748 32.5289 38.6617 33.3885 38.5373C35.1301 38.2885 36.9283 38.0283 38.5455 37.0896C40.4342 35.9928 41.7234 34.1605 42.0967 32.057C42.3793 30.4398 42.0967 28.8113 41.3728 27.3863C41.8592 26.6059 42.1305 25.6898 42.1305 24.7061ZM39.9252 24.7061C39.9252 26.2779 38.6473 27.5559 37.0752 27.5559C35.5033 27.5559 34.2254 26.2779 34.2254 24.7061C34.2254 24.1971 34.3609 23.7107 34.5984 23.2924C34.691 23.1328 34.797 22.9814 34.9152 22.8398C35.0283 22.7043 35.1641 22.5799 35.3109 22.4668L35.3223 22.4555C35.4127 22.3875 35.5146 22.3197 35.6164 22.2518C35.6164 22.2518 35.6277 22.2518 35.6277 22.2404C35.6728 22.218 35.7182 22.184 35.7633 22.1613C35.7746 22.1613 35.7859 22.15 35.7973 22.15C35.8426 22.1273 35.899 22.1049 35.9557 22.0822C36.0121 22.0596 36.0687 22.0369 36.1139 22.0143C36.1252 22.0143 36.1365 22.0029 36.1478 22.0029C36.1932 21.9918 36.2383 21.9691 36.2836 21.9578C36.2949 21.9578 36.3176 21.9465 36.3289 21.9465C36.3853 21.9352 36.4307 21.9238 36.4871 21.9125H36.4984L36.6682 21.8787C36.6795 21.8787 36.7019 21.8787 36.7133 21.8674C36.7586 21.8674 36.8039 21.8561 36.849 21.8561H36.9057C36.9621 21.8561 37.0187 21.8447 37.0865 21.8447H37.2336C37.2789 21.8447 37.3127 21.8447 37.358 21.8561H37.3807C37.4711 21.8674 37.5615 21.8787 37.6519 21.9012C38.9412 22.1727 39.9252 23.3262 39.9252 24.7061ZM22.26 7.73066H40.0496L35.967 19.775C35.7973 19.809 35.6277 19.8656 35.458 19.9221L31.1605 11.1574L26.8516 19.8656C26.682 19.809 26.501 19.775 26.3201 19.7412L22.26 7.73066ZM30.3461 23.7221C30.1312 22.659 29.5885 21.709 28.8193 21.0078L31.1605 16.2805L33.524 21.1096C32.8228 21.8107 32.3141 22.7043 32.1103 23.7221H30.3461ZM24.6803 21.9352C24.7367 21.9238 24.782 21.9125 24.8385 21.9012H24.8724C24.9178 21.8898 24.9629 21.8898 25.0082 21.8787H25.0533C25.0986 21.8787 25.1326 21.8674 25.1777 21.8674H25.6189C25.6641 21.8674 25.698 21.8787 25.732 21.8787C25.7547 21.8787 25.7658 21.8787 25.7885 21.8898C25.8338 21.9012 25.8678 21.9012 25.9129 21.9125C25.9242 21.9125 25.9355 21.9125 25.9582 21.9238C26.0146 21.9352 26.0713 21.9465 26.1164 21.9578H26.1277C26.173 21.9691 26.2183 21.9805 26.2635 22.0029C26.2748 22.0029 26.2861 22.0143 26.3088 22.0143C26.3428 22.0256 26.3879 22.0369 26.4219 22.0596C26.4332 22.0596 26.4445 22.0709 26.4558 22.0709C26.501 22.0936 26.5463 22.1049 26.5914 22.1273H26.6027C26.6594 22.15 26.7045 22.1727 26.7498 22.2066H26.7611C26.8064 22.2293 26.8516 22.2631 26.8969 22.2857C26.9082 22.2857 26.9082 22.2971 26.9195 22.2971C26.9646 22.3197 26.9986 22.3535 27.0439 22.3762L27.0551 22.3875C27.1908 22.4893 27.3152 22.6023 27.4396 22.7154L27.451 22.7268C27.5641 22.8512 27.6771 22.9869 27.7676 23.134C28.071 23.5979 28.2322 24.1404 28.2312 24.6947C28.2312 26.2666 26.9533 27.5445 25.3814 27.5445C23.8094 27.5445 22.5314 26.2666 22.5314 24.6947C22.5201 23.3715 23.4361 22.2518 24.6803 21.9352ZM13.5517 21.8561C15.1238 21.8561 16.4017 23.134 16.4017 24.7061C16.4017 26.2779 15.1238 27.5559 13.5517 27.5559C11.9799 27.5559 10.7017 26.2779 10.7017 24.7061C10.7017 23.134 11.9799 21.8561 13.5517 21.8561ZM39.8574 31.6611C39.6086 33.1088 38.715 34.3754 37.4031 35.1332C36.1705 35.8457 34.6551 36.0719 33.0603 36.298C32.1896 36.4225 31.2736 36.5582 30.3914 36.773C28.0391 37.3498 25.7771 38.4807 23.5832 39.5664C20.7785 40.9574 18.132 42.2693 15.6779 42.2693C14.4 42.2693 13.2578 41.9074 12.1721 41.1498C9.68397 39.4307 9.80839 36.2076 10.1025 34.4434C10.374 32.7922 11.1316 31.2428 11.8555 29.7613C11.9006 29.6707 11.9346 29.5916 11.9799 29.5012C12.2332 29.5927 12.4944 29.6609 12.7601 29.7047C12.3305 32.1023 13.5517 34.5791 15.9267 35.8004L16.3564 36.0266L16.8201 35.857C18.7994 35.1559 20.6314 34.0135 22.2486 32.4867C23.1648 31.6273 23.9451 30.7 24.601 29.6934C24.8611 29.7387 25.1213 29.75 25.3814 29.75C27.7338 29.75 29.7129 28.1326 30.2783 25.9613H32.1783C32.7437 28.1439 34.7228 29.75 37.0752 29.75C38.0139 29.75 38.8848 29.4898 39.6312 29.0488C39.9252 29.8969 40.0156 30.7791 39.8574 31.6611Z" fill="white"/>
    </g>
    <defs>
        <clipPath id="clip0_45218_86">
            <rect width="50" height="50" fill="white" transform="translate(0.459961)"/>
        </clipPath>
    </defs>
</svg>




